<svg width="32" height="32" viewBox="0 0 32 32" fill="none" xmlns="http://www.w3.org/2000/svg">
<path d="M14.7782 20.7386V27.9384H19.6882V20.7386H22.1432L23.7799 17.0011H19.6882V14.011C19.6882 13.1857 20.4214 13.2635 21.3249 13.2635H22.9616V9.52589H19.6882C16.9763 9.52589 14.7782 11.5337 14.7782 14.011V17.0011H11.5049V20.7386H14.7782Z" stroke="#D3C1AC" stroke-width="0.476047"/>
<path d="M21.7344 4.41132H10.4823C7.09267 4.41132 4.34482 7.15917 4.34482 10.5488V21.8009C4.34482 25.1906 7.09267 27.9384 10.4823 27.9384H21.7344C25.1241 27.9384 27.8719 25.1906 27.8719 21.8009V10.5488C27.8719 7.15917 25.1241 4.41132 21.7344 4.41132Z" stroke="#D3C1AC" stroke-width="0.680067" stroke-linecap="round" stroke-linejoin="round"/>
</svg>
