<svg width="32" height="32" viewBox="0 0 32 32" fill="none" xmlns="http://www.w3.org/2000/svg">
<path d="M16.0004 21C18.7618 21 21.0004 18.7614 21.0004 16C21.0004 13.2386 18.7618 11 16.0004 11C13.239 11 11.0004 13.2386 11.0004 16C11.0004 18.7614 13.239 21 16.0004 21Z" stroke="#D3C1AC" stroke-width="0.680067" stroke-miterlimit="10"/>
<path d="M21.5003 4.50002H10.5003C7.18663 4.50002 4.50034 7.18631 4.50034 10.5V21.5C4.50034 24.8137 7.18663 27.5 10.5003 27.5H21.5003C24.814 27.5 27.5003 24.8137 27.5003 21.5V10.5C27.5003 7.18631 24.814 4.50002 21.5003 4.50002Z" stroke="#D3C1AC" stroke-width="0.680067" stroke-linecap="round" stroke-linejoin="round"/>
<path d="M22.5004 11C23.3288 11 24.0004 10.3285 24.0004 9.50005C24.0004 8.67162 23.3288 8.00005 22.5004 8.00005C21.672 8.00005 21.0004 8.67162 21.0004 9.50005C21.0004 10.3285 21.672 11 22.5004 11Z" fill="#D3C1AC"/>
</svg>
