<svg width="68" height="62" viewBox="0 0 68 62" fill="none" xmlns="http://www.w3.org/2000/svg">
<path d="M37.3158 33.4448C37.3158 34.8709 37.5811 36.3989 38.1116 38.0288C38.6674 39.6332 39.5263 41.1231 40.6884 42.4983C41.8505 43.8735 43.3284 45.0195 45.1221 45.9363C46.9158 46.8276 49.0632 47.2733 51.5642 47.2733C53.2568 47.2733 54.7853 47.0696 56.1495 46.6621C57.5389 46.2292 58.7768 45.6562 59.8632 44.9431C60.9747 44.23 61.9347 43.4151 62.7432 42.4983C63.5516 41.556 64.2084 40.5755 64.7137 39.5568C65.2442 38.5127 65.6358 37.4685 65.8884 36.4244C66.1663 35.3803 66.3053 34.387 66.3053 33.4448C66.3053 32.0186 66.0147 30.5033 65.4337 28.8989C64.8526 27.269 63.9558 25.7665 62.7432 24.3913C61.5305 23.0161 59.9895 21.8828 58.12 20.9914C56.2758 20.0746 54.0905 19.6162 51.5642 19.6162C49.0632 19.6162 46.9158 20.0619 45.1221 20.9532C43.3284 21.8446 41.8505 22.9779 40.6884 24.3531C39.5263 25.7028 38.6674 27.1926 38.1116 28.8225C37.5811 30.4524 37.3158 31.9932 37.3158 33.4448ZM41.0295 33.4448C41.0295 31.6621 41.2947 30.0322 41.8253 28.5551C42.3811 27.0526 43.1263 25.7665 44.0611 24.6969C45.021 23.6273 46.1453 22.7996 47.4337 22.2139C48.7221 21.6026 50.1242 21.297 51.64 21.297C53.1305 21.297 54.5326 21.6026 55.8463 22.2139C57.1853 22.7996 58.3474 23.6273 59.3326 24.6969C60.3432 25.7665 61.139 27.0526 61.72 28.5551C62.3011 30.0322 62.5916 31.6621 62.5916 33.4448C62.5916 35.2275 62.3011 36.8701 61.72 38.3726C61.139 39.8497 60.3432 41.1231 59.3326 42.1927C58.3474 43.2623 57.1853 44.1027 55.8463 44.7139C54.5326 45.2996 53.1305 45.5925 51.64 45.5925C50.1242 45.5925 48.7221 45.2996 47.4337 44.7139C46.1453 44.1027 45.021 43.2623 44.0611 42.1927C43.1263 41.1231 42.3811 39.8497 41.8253 38.3726C41.2947 36.8701 41.0295 35.2275 41.0295 33.4448Z" fill="#463C2D"/>
<path d="M23.7018 7.43558C20.6278 9.05203 17.4937 11.0923 14.2996 13.5562C11.1756 16.0207 8.48094 18.7077 6.21562 21.6171C3.95031 24.5265 2.36896 27.5431 1.47157 30.667C0.629081 33.7621 0.959939 36.763 2.46415 39.67C3.48215 41.6373 4.84053 43.1828 6.5393 44.3065C8.30816 45.4308 10.2878 46.2201 12.4781 46.6744C14.6837 47.1582 17.0176 47.3503 19.48 47.2507C21.9973 47.1223 24.5057 46.7744 27.0053 46.2071C29.575 45.6402 32.0612 44.9119 34.4637 44.022C36.8815 43.1615 39.1059 42.1973 41.137 41.1293C44.211 39.5128 47.3024 37.4577 50.4112 34.9638C53.5749 32.4411 56.2743 29.6957 58.5092 26.7275C60.7441 23.7594 62.26 20.6838 63.057 17.5007C63.924 14.318 63.5977 11.2586 62.0783 8.32233C60.5741 5.41542 58.322 3.42473 55.322 2.35026C52.3219 1.2758 48.9903 0.842581 45.3271 1.05062C41.7189 1.22979 37.991 1.92007 34.1436 3.12147C30.3113 4.35223 26.8307 5.79026 23.7018 7.43558ZM25.9353 11.7519C29.7779 9.73133 33.4506 8.19227 36.9535 7.1347C40.5264 6.07763 43.7468 5.48614 46.6145 5.36022C49.4974 5.26366 51.9576 5.63218 53.995 6.46578C56.0873 7.27051 57.5893 8.55376 58.501 10.3155C59.3974 12.0479 59.582 14.0239 59.0546 16.2436C58.5973 18.4637 57.5122 20.7525 55.7993 23.11C54.1015 25.4968 51.808 27.8794 48.9188 30.2578C46.0844 32.6073 42.746 34.7924 38.9034 36.813C35.0609 38.8335 31.3455 40.3577 27.7574 41.3854C24.2241 42.3842 21.0008 42.9025 18.0875 42.9404C15.1894 43.0076 12.679 42.6094 10.5563 41.746C8.50368 40.883 7.02914 39.5853 6.13269 37.8529C5.22105 36.0912 5.00905 34.1296 5.4967 31.9682C6.03925 29.7779 7.1746 27.5187 8.90275 25.1906C10.6461 22.8919 12.9425 20.5824 15.7921 18.2622C18.7117 15.9426 22.0928 13.7725 25.9353 11.7519Z" fill="#463C2D"/>
<path d="M1 53.9561V60.8813H2.41967V53.9561H1Z" fill="#463C2D"/>
<path d="M15.5888 53.9561V59.2489H15.5264L6.86795 53.8374H6.78995V60.8813H7.50758V55.5885H7.56999L16.2284 61H16.3064V53.9561H15.5888Z" fill="#463C2D"/>
<path d="M24.0851 60.8813V54.5003H28.2661V53.9561H18.4844V54.5003H22.6654V60.8813H24.0851Z" fill="#463C2D"/>
<path d="M30.4501 53.9561V60.8813H37.5016V60.3372H31.8697V57.4385H36.706V56.9834H31.8697V54.5003H37.5016V53.9561H30.4501Z" fill="#463C2D"/>
<path d="M39.8349 53.9561V60.8813H41.2546V57.8243H41.941C42.2322 57.8243 42.4714 57.8408 42.6586 57.8738C42.8562 57.9068 43.0331 57.9628 43.1891 58.042C43.3451 58.1211 43.4907 58.2233 43.6259 58.3487C43.7611 58.474 43.9223 58.629 44.1095 58.8136L45.342 59.9711C45.498 60.1228 45.6488 60.2613 45.7944 60.3866C45.9504 60.5119 46.1168 60.6208 46.2936 60.7131C46.4704 60.7988 46.668 60.8681 46.8864 60.9209C47.1152 60.9736 47.3857 61 47.6977 61C47.9265 61 48.1137 60.9934 48.2593 60.9802C48.4049 60.967 48.5505 60.934 48.6961 60.8813V60.5152C48.6441 60.5218 48.5921 60.5284 48.5401 60.535C48.4881 60.535 48.4361 60.535 48.3841 60.535C48.1657 60.535 47.9733 60.5152 47.8069 60.4757C47.6405 60.4361 47.4845 60.38 47.3389 60.3075C47.1932 60.2283 47.0528 60.136 46.9176 60.0305C46.7824 59.9184 46.642 59.793 46.4964 59.6545C46.0596 59.2522 45.7216 58.9324 45.4824 58.6949C45.2432 58.4509 45.0508 58.2629 44.9051 58.131C44.7699 57.9991 44.6555 57.9035 44.5619 57.8441C44.4787 57.7848 44.3747 57.7353 44.2499 57.6957L44.0939 57.6463V57.6067C44.5931 57.5869 45.0195 57.5176 45.3732 57.3989C45.7372 57.2802 46.0336 57.1318 46.2624 56.9537C46.4912 56.7757 46.6576 56.5844 46.7616 56.3799C46.8656 56.1689 46.9176 55.9644 46.9176 55.7666C46.9176 55.5885 46.8604 55.3939 46.746 55.1829C46.642 54.9718 46.4548 54.7773 46.1844 54.5992C45.9244 54.4145 45.5656 54.2628 45.1079 54.1441C44.6503 54.0188 44.0731 53.9561 43.3763 53.9561H39.8349ZM41.2546 54.3914H42.8302C43.2255 54.3914 43.5791 54.4277 43.8911 54.5003C44.2135 54.5728 44.4891 54.675 44.7179 54.8069C44.9467 54.9323 45.1183 55.084 45.2328 55.262C45.3576 55.4401 45.42 55.6347 45.42 55.8457C45.42 56.0238 45.3628 56.2052 45.2484 56.3898C45.1443 56.5679 44.9831 56.7328 44.7647 56.8845C44.5463 57.0296 44.2759 57.1483 43.9535 57.2406C43.6415 57.333 43.2775 57.3791 42.8614 57.3791H41.2546V54.3914Z" fill="#463C2D"/>
<path d="M51.6567 53.9561V60.8813H53.0764V53.9561H51.6567Z" fill="#463C2D"/>
<path d="M63.5154 58.8433L65.013 60.8813H66.5263L61.4405 53.9561H60.6604L56.0426 60.8813H56.7602L58.1331 58.8433H63.5154ZM63.1878 58.3981H58.4295L60.676 55.0642H60.7384L63.1878 58.3981Z" fill="#463C2D"/>
<path d="M37.3158 33.4448C37.3158 34.8709 37.5811 36.3989 38.1116 38.0288C38.6674 39.6332 39.5263 41.1231 40.6884 42.4983C41.8505 43.8735 43.3284 45.0195 45.1221 45.9363C46.9158 46.8276 49.0632 47.2733 51.5642 47.2733C53.2568 47.2733 54.7853 47.0696 56.1495 46.6621C57.5389 46.2292 58.7768 45.6562 59.8632 44.9431C60.9747 44.23 61.9347 43.4151 62.7432 42.4983C63.5516 41.556 64.2084 40.5755 64.7137 39.5568C65.2442 38.5127 65.6358 37.4685 65.8884 36.4244C66.1663 35.3803 66.3053 34.387 66.3053 33.4448C66.3053 32.0186 66.0147 30.5033 65.4337 28.8989C64.8526 27.269 63.9558 25.7665 62.7432 24.3913C61.5305 23.0161 59.9895 21.8828 58.12 20.9914C56.2758 20.0746 54.0905 19.6162 51.5642 19.6162C49.0632 19.6162 46.9158 20.0619 45.1221 20.9532C43.3284 21.8446 41.8505 22.9779 40.6884 24.3531C39.5263 25.7028 38.6674 27.1926 38.1116 28.8225C37.5811 30.4524 37.3158 31.9932 37.3158 33.4448ZM41.0295 33.4448C41.0295 31.6621 41.2947 30.0322 41.8253 28.5551C42.3811 27.0526 43.1263 25.7665 44.0611 24.6969C45.021 23.6273 46.1453 22.7996 47.4337 22.2139C48.7221 21.6026 50.1242 21.297 51.64 21.297C53.1305 21.297 54.5326 21.6026 55.8463 22.2139C57.1853 22.7996 58.3474 23.6273 59.3326 24.6969C60.3432 25.7665 61.139 27.0526 61.72 28.5551C62.3011 30.0322 62.5916 31.6621 62.5916 33.4448C62.5916 35.2275 62.3011 36.8701 61.72 38.3726C61.139 39.8497 60.3432 41.1231 59.3326 42.1927C58.3474 43.2623 57.1853 44.1027 55.8463 44.7139C54.5326 45.2996 53.1305 45.5925 51.64 45.5925C50.1242 45.5925 48.7221 45.2996 47.4337 44.7139C46.1453 44.1027 45.021 43.2623 44.0611 42.1927C43.1263 41.1231 42.3811 39.8497 41.8253 38.3726C41.2947 36.8701 41.0295 35.2275 41.0295 33.4448Z" stroke="#463C2D"/>
<path d="M23.7018 7.43558C20.6278 9.05203 17.4937 11.0923 14.2996 13.5562C11.1756 16.0207 8.48094 18.7077 6.21562 21.6171C3.95031 24.5265 2.36896 27.5431 1.47157 30.667C0.629081 33.7621 0.959939 36.763 2.46415 39.67C3.48215 41.6373 4.84053 43.1828 6.5393 44.3065C8.30816 45.4308 10.2878 46.2201 12.4781 46.6744C14.6837 47.1582 17.0176 47.3503 19.48 47.2507C21.9973 47.1223 24.5057 46.7744 27.0053 46.2071C29.575 45.6402 32.0612 44.9119 34.4637 44.022C36.8815 43.1615 39.1059 42.1973 41.137 41.1293C44.211 39.5128 47.3024 37.4577 50.4112 34.9638C53.5749 32.4411 56.2743 29.6957 58.5092 26.7275C60.7441 23.7594 62.26 20.6838 63.057 17.5007C63.924 14.318 63.5977 11.2586 62.0783 8.32233C60.5741 5.41542 58.322 3.42473 55.322 2.35026C52.3219 1.2758 48.9903 0.842581 45.3271 1.05062C41.7189 1.22979 37.991 1.92007 34.1436 3.12147C30.3113 4.35223 26.8307 5.79026 23.7018 7.43558ZM25.9353 11.7519C29.7779 9.73133 33.4506 8.19227 36.9535 7.1347C40.5264 6.07763 43.7468 5.48614 46.6145 5.36022C49.4974 5.26366 51.9576 5.63218 53.995 6.46578C56.0873 7.27051 57.5893 8.55376 58.501 10.3155C59.3974 12.0479 59.582 14.0239 59.0546 16.2436C58.5973 18.4637 57.5122 20.7525 55.7993 23.11C54.1015 25.4968 51.808 27.8794 48.9188 30.2578C46.0844 32.6073 42.746 34.7924 38.9034 36.813C35.0609 38.8335 31.3455 40.3577 27.7574 41.3854C24.2241 42.3842 21.0008 42.9025 18.0875 42.9404C15.1894 43.0076 12.679 42.6094 10.5563 41.746C8.50368 40.883 7.02914 39.5853 6.13269 37.8529C5.22105 36.0912 5.00905 34.1296 5.4967 31.9682C6.03925 29.7779 7.1746 27.5187 8.90275 25.1906C10.6461 22.8919 12.9425 20.5824 15.7921 18.2622C18.7117 15.9426 22.0928 13.7725 25.9353 11.7519Z" stroke="#463C2D"/>
<path d="M1 53.9561V60.8813H2.41967V53.9561H1Z" stroke="#463C2D"/>
<path d="M15.5888 53.9561V59.2489H15.5264L6.86795 53.8374H6.78995V60.8813H7.50758V55.5885H7.56999L16.2284 61H16.3064V53.9561H15.5888Z" stroke="#463C2D"/>
<path d="M24.0851 60.8813V54.5003H28.2661V53.9561H18.4844V54.5003H22.6654V60.8813H24.0851Z" stroke="#463C2D"/>
<path d="M30.4501 53.9561V60.8813H37.5016V60.3372H31.8697V57.4385H36.706V56.9834H31.8697V54.5003H37.5016V53.9561H30.4501Z" stroke="#463C2D"/>
<path d="M39.8349 53.9561V60.8813H41.2546V57.8243H41.941C42.2322 57.8243 42.4714 57.8408 42.6586 57.8738C42.8562 57.9068 43.0331 57.9628 43.1891 58.042C43.3451 58.1211 43.4907 58.2233 43.6259 58.3487C43.7611 58.474 43.9223 58.629 44.1095 58.8136L45.342 59.9711C45.498 60.1228 45.6488 60.2613 45.7944 60.3866C45.9504 60.5119 46.1168 60.6208 46.2936 60.7131C46.4704 60.7988 46.668 60.8681 46.8864 60.9209C47.1152 60.9736 47.3857 61 47.6977 61C47.9265 61 48.1137 60.9934 48.2593 60.9802C48.4049 60.967 48.5505 60.934 48.6961 60.8813V60.5152C48.6441 60.5218 48.5921 60.5284 48.5401 60.535C48.4881 60.535 48.4361 60.535 48.3841 60.535C48.1657 60.535 47.9733 60.5152 47.8069 60.4757C47.6405 60.4361 47.4845 60.38 47.3389 60.3075C47.1932 60.2283 47.0528 60.136 46.9176 60.0305C46.7824 59.9184 46.642 59.793 46.4964 59.6545C46.0596 59.2522 45.7216 58.9324 45.4824 58.6949C45.2432 58.4509 45.0508 58.2629 44.9051 58.131C44.7699 57.9991 44.6555 57.9035 44.5619 57.8441C44.4787 57.7848 44.3747 57.7353 44.2499 57.6957L44.0939 57.6463V57.6067C44.5931 57.5869 45.0195 57.5176 45.3732 57.3989C45.7372 57.2802 46.0336 57.1318 46.2624 56.9537C46.4912 56.7757 46.6576 56.5844 46.7616 56.3799C46.8656 56.1689 46.9176 55.9644 46.9176 55.7666C46.9176 55.5885 46.8604 55.3939 46.746 55.1829C46.642 54.9718 46.4548 54.7773 46.1844 54.5992C45.9244 54.4145 45.5656 54.2628 45.1079 54.1441C44.6503 54.0188 44.0731 53.9561 43.3763 53.9561H39.8349ZM41.2546 54.3914H42.8302C43.2255 54.3914 43.5791 54.4277 43.8911 54.5003C44.2135 54.5728 44.4891 54.675 44.7179 54.8069C44.9467 54.9323 45.1183 55.084 45.2328 55.262C45.3576 55.4401 45.42 55.6347 45.42 55.8457C45.42 56.0238 45.3628 56.2052 45.2484 56.3898C45.1443 56.5679 44.9831 56.7328 44.7647 56.8845C44.5463 57.0296 44.2759 57.1483 43.9535 57.2406C43.6415 57.333 43.2775 57.3791 42.8614 57.3791H41.2546V54.3914Z" stroke="#463C2D"/>
<path d="M51.6567 53.9561V60.8813H53.0764V53.9561H51.6567Z" stroke="#463C2D"/>
<path d="M63.5154 58.8433L65.013 60.8813H66.5263L61.4405 53.9561H60.6604L56.0426 60.8813H56.7602L58.1331 58.8433H63.5154ZM63.1878 58.3981H58.4295L60.676 55.0642H60.7384L63.1878 58.3981Z" stroke="#463C2D"/>
</svg>
