<svg width="44" height="32" viewBox="0 0 44 32" fill="none" xmlns="http://www.w3.org/2000/svg">
<path d="M24.2478 22.0333C24.2478 22.9579 24.4177 23.9485 24.7574 25.0051C25.1134 26.0452 25.6635 27.011 26.4078 27.9026C27.1521 28.7941 28.0987 29.537 29.2475 30.1314C30.3963 30.7092 31.7716 30.9981 33.3735 30.9981C34.4575 30.9981 35.4364 30.8661 36.3102 30.6019C37.2001 30.3212 37.9929 29.9498 38.6887 29.4875C39.4006 29.0252 40.0155 28.4969 40.5332 27.9026C41.051 27.2917 41.4717 26.6561 41.7953 25.9957C42.1351 25.3188 42.3859 24.6419 42.5477 23.965C42.7257 23.2881 42.8147 22.6442 42.8147 22.0333C42.8147 21.1088 42.6286 20.1265 42.2565 19.0864C41.8843 18.0297 41.3099 17.0557 40.5332 16.1641C39.7566 15.2726 38.7696 14.5379 37.5722 13.9601C36.3911 13.3657 34.9915 13.0686 33.3735 13.0686C31.7716 13.0686 30.3963 13.3575 29.2475 13.9353C28.0987 14.5132 27.1521 15.2478 26.4078 16.1394C25.6635 17.0144 25.1134 17.9802 24.7574 19.0368C24.4177 20.0935 24.2478 21.0923 24.2478 22.0333ZM26.6263 22.0333C26.6263 20.8777 26.7962 19.821 27.1359 18.8635C27.4919 17.8894 27.9692 17.0557 28.5679 16.3622C29.1828 15.6688 29.9028 15.1323 30.728 14.7525C31.5532 14.3563 32.4512 14.1582 33.422 14.1582C34.3766 14.1582 35.2746 14.3563 36.116 14.7525C36.9736 15.1323 37.7179 15.6688 38.3489 16.3622C38.9961 17.0557 39.5058 17.8894 39.8779 18.8635C40.2501 19.821 40.4362 20.8777 40.4362 22.0333C40.4362 23.189 40.2501 24.2539 39.8779 25.228C39.5058 26.1855 38.9961 27.011 38.3489 27.7044C37.7179 28.3979 36.9736 28.9427 36.116 29.3389C35.2746 29.7186 34.3766 29.9085 33.422 29.9085C32.4512 29.9085 31.5532 29.7186 30.728 29.3389C29.9028 28.9427 29.1828 28.3979 28.5679 27.7044C27.9692 27.011 27.4919 26.1855 27.1359 25.228C26.7962 24.2539 26.6263 23.189 26.6263 22.0333Z" fill="#463C2D"/>
<path d="M15.5284 5.17207C13.5596 6.21998 11.5523 7.54262 9.50657 9.13998C7.50573 10.7377 5.77987 12.4796 4.32901 14.3657C2.87814 16.2518 1.86533 18.2074 1.29058 20.2326C0.750988 22.239 0.962893 24.1845 1.92629 26.069C2.57829 27.3444 3.4483 28.3463 4.53631 29.0748C5.66921 29.8036 6.93709 30.3153 8.33995 30.6099C9.75255 30.9235 11.2474 31.048 12.8245 30.9835C14.4367 30.9002 16.0433 30.6747 17.6442 30.3069C19.29 29.9394 20.8823 29.4672 22.4211 28.8904C23.9696 28.3325 25.3943 27.7074 26.6951 27.0151C28.6639 25.9671 30.6439 24.6348 32.635 23.0181C34.6613 21.3827 36.3901 19.6029 37.8215 17.6787C39.2529 15.7545 40.2238 13.7606 40.7342 11.6971C41.2895 9.63384 41.0806 7.65046 40.1075 5.74693C39.1441 3.86244 37.7016 2.57191 35.7802 1.87535C33.8587 1.17879 31.725 0.897948 29.3788 1.03282C27.0678 1.14897 24.6802 1.59647 22.216 2.37531C19.7616 3.17319 17.5324 4.10544 15.5284 5.17207ZM16.9589 7.97026C19.4199 6.66036 21.7722 5.66261 24.0157 4.97701C26.3041 4.29174 28.3666 3.90828 30.2033 3.82665C32.0497 3.76405 33.6254 4.00296 34.9303 4.54336C36.2704 5.06506 37.2324 5.89696 37.8162 7.03908C38.3904 8.16216 38.5086 9.44317 38.1708 10.8821C37.878 12.3214 37.183 13.8052 36.0859 15.3335C34.9985 16.8808 33.5296 18.4254 31.6791 19.9673C29.8638 21.4905 27.7256 22.907 25.2646 24.2169C22.8036 25.5268 20.424 26.5148 18.1259 27.1811C15.8629 27.8286 13.7985 28.1646 11.9326 28.1892C10.0765 28.2327 8.46863 27.9746 7.10909 27.4149C5.79444 26.8554 4.85004 26.0142 4.27589 24.8911C3.69201 23.749 3.55623 22.4773 3.86856 21.0761C4.21604 19.6562 4.9432 18.1916 6.05003 16.6823C7.16659 15.1921 8.63739 13.6949 10.4624 12.1908C12.3324 10.687 14.4979 9.28015 16.9589 7.97026Z" fill="#463C2D"/>
<path d="M24.2478 22.0333C24.2478 22.9579 24.4177 23.9485 24.7574 25.0051C25.1134 26.0452 25.6635 27.011 26.4078 27.9026C27.1521 28.7941 28.0987 29.537 29.2475 30.1314C30.3963 30.7092 31.7716 30.9981 33.3735 30.9981C34.4575 30.9981 35.4364 30.8661 36.3102 30.6019C37.2001 30.3212 37.9929 29.9498 38.6887 29.4875C39.4006 29.0252 40.0155 28.4969 40.5332 27.9026C41.051 27.2917 41.4717 26.6561 41.7953 25.9957C42.1351 25.3188 42.3859 24.6419 42.5477 23.965C42.7257 23.2881 42.8147 22.6442 42.8147 22.0333C42.8147 21.1088 42.6286 20.1265 42.2565 19.0864C41.8843 18.0297 41.3099 17.0557 40.5332 16.1641C39.7566 15.2726 38.7696 14.5379 37.5722 13.9601C36.3911 13.3657 34.9915 13.0686 33.3735 13.0686C31.7716 13.0686 30.3963 13.3575 29.2475 13.9353C28.0987 14.5132 27.1521 15.2478 26.4078 16.1394C25.6635 17.0144 25.1134 17.9802 24.7574 19.0368C24.4177 20.0935 24.2478 21.0923 24.2478 22.0333ZM26.6263 22.0333C26.6263 20.8777 26.7962 19.821 27.1359 18.8635C27.4919 17.8894 27.9692 17.0557 28.5679 16.3622C29.1828 15.6688 29.9028 15.1323 30.728 14.7525C31.5532 14.3563 32.4512 14.1582 33.422 14.1582C34.3766 14.1582 35.2746 14.3563 36.116 14.7525C36.9736 15.1323 37.7179 15.6688 38.3489 16.3622C38.9961 17.0557 39.5058 17.8894 39.8779 18.8635C40.2501 19.821 40.4362 20.8777 40.4362 22.0333C40.4362 23.189 40.2501 24.2539 39.8779 25.228C39.5058 26.1855 38.9961 27.011 38.3489 27.7044C37.7179 28.3979 36.9736 28.9427 36.116 29.3389C35.2746 29.7186 34.3766 29.9085 33.422 29.9085C32.4512 29.9085 31.5532 29.7186 30.728 29.3389C29.9028 28.9427 29.1828 28.3979 28.5679 27.7044C27.9692 27.011 27.4919 26.1855 27.1359 25.228C26.7962 24.2539 26.6263 23.189 26.6263 22.0333Z" stroke="#463C2D"/>
<path d="M15.5284 5.17207C13.5596 6.21998 11.5523 7.54262 9.50657 9.13998C7.50573 10.7377 5.77987 12.4796 4.32901 14.3657C2.87814 16.2518 1.86533 18.2074 1.29058 20.2326C0.750988 22.239 0.962893 24.1845 1.92629 26.069C2.57829 27.3444 3.4483 28.3463 4.53631 29.0748C5.66921 29.8036 6.93709 30.3153 8.33995 30.6099C9.75255 30.9235 11.2474 31.048 12.8245 30.9835C14.4367 30.9002 16.0433 30.6747 17.6442 30.3069C19.29 29.9394 20.8823 29.4672 22.4211 28.8904C23.9696 28.3325 25.3943 27.7074 26.6951 27.0151C28.6639 25.9671 30.6439 24.6348 32.635 23.0181C34.6613 21.3827 36.3901 19.6029 37.8215 17.6787C39.2529 15.7545 40.2238 13.7606 40.7342 11.6971C41.2895 9.63384 41.0806 7.65046 40.1075 5.74693C39.1441 3.86244 37.7016 2.57191 35.7802 1.87535C33.8587 1.17879 31.725 0.897948 29.3788 1.03282C27.0678 1.14897 24.6802 1.59647 22.216 2.37531C19.7616 3.17319 17.5324 4.10544 15.5284 5.17207ZM16.9589 7.97026C19.4199 6.66036 21.7722 5.66261 24.0157 4.97701C26.3041 4.29174 28.3666 3.90828 30.2033 3.82665C32.0497 3.76405 33.6254 4.00296 34.9303 4.54336C36.2704 5.06506 37.2324 5.89696 37.8162 7.03908C38.3904 8.16216 38.5086 9.44317 38.1708 10.8821C37.878 12.3214 37.183 13.8052 36.0859 15.3335C34.9985 16.8808 33.5296 18.4254 31.6791 19.9673C29.8638 21.4905 27.7256 22.907 25.2646 24.2169C22.8036 25.5268 20.424 26.5148 18.1259 27.1811C15.8629 27.8286 13.7985 28.1646 11.9326 28.1892C10.0765 28.2327 8.46863 27.9746 7.10909 27.4149C5.79444 26.8554 4.85004 26.0142 4.27589 24.8911C3.69201 23.749 3.55623 22.4773 3.86856 21.0761C4.21604 19.6562 4.9432 18.1916 6.05003 16.6823C7.16659 15.1921 8.63739 13.6949 10.4624 12.1908C12.3324 10.687 14.4979 9.28015 16.9589 7.97026Z" stroke="#463C2D"/>
</svg>
