<svg width="32" height="32" viewBox="0 0 32 32" fill="none" xmlns="http://www.w3.org/2000/svg">
<path d="M19.5713 16L13.5713 12V20L19.5713 16Z" stroke="#D3C1AC" stroke-width="0.680067" stroke-linecap="round" stroke-linejoin="round"/>
<path d="M2.57095 16C2.57095 19.7194 2.95522 21.9017 3.24734 23.0233C3.32542 23.3296 3.47538 23.6129 3.68477 23.8497C3.89417 24.0866 4.15698 24.2701 4.45144 24.3851C8.63606 25.9932 15.571 25.949 15.571 25.949C15.571 25.949 22.5058 25.9932 26.6904 24.3851C26.9849 24.2701 27.2477 24.0866 27.4571 23.8498C27.6665 23.6129 27.8165 23.3296 27.8945 23.0233C28.1867 21.9017 28.571 19.7194 28.571 16C28.571 12.2805 28.1867 10.0982 27.8946 8.97663C27.8165 8.67031 27.6665 8.387 27.4571 8.15018C27.2477 7.91336 26.9849 7.72985 26.6905 7.61484C22.5058 6.00674 15.571 6.0509 15.571 6.0509C15.571 6.0509 8.63613 6.00675 4.45148 7.61482C4.15702 7.72983 3.89421 7.91334 3.68481 8.15016C3.47541 8.38698 3.32545 8.67029 3.24737 8.97661C2.95524 10.0982 2.57095 12.2805 2.57095 16Z" stroke="#D3C1AC" stroke-width="0.680067" stroke-linecap="round" stroke-linejoin="round"/>
</svg>
